<?xml version="1.0" encoding="UTF-8"?>
<svg width="24px" height="26px" viewBox="0 0 24 26" version="1.1" xmlns="http://www.w3.org/2000/svg" xmlns:xlink="http://www.w3.org/1999/xlink">
    <!-- Generator: Sketch 60.1 (88133) - https://sketch.com -->
    <title>Group 2</title>
    <desc>Created with Sketch.</desc>
    <g id="Main" stroke="none" stroke-width="1" fill="none" fill-rule="evenodd">
        <g id="Messages" transform="translate(-1596.000000, -19.000000)">
            <g id="Toolbar-2" transform="translate(380.000000, 0.000000)">
                <g id="Group-2" transform="translate(1213.000000, 19.000000)">
                    <g id="Component/icon/ic_Notification" transform="translate(0.000000, 3.000000)" fill="#92929D">
                        <path d="M12.0013036,2 C13.5366967,2 14.8026903,3.15343657 14.9800545,4.64107991 C17.4828447,5.77566404 19.2235258,8.2956642 19.2235258,11.2222222 L19.2235258,16.2398916 L20.894025,19.549391 C21.2297482,20.214507 20.7463468,21 20.0013036,21 L14.8302793,21.0009007 C14.4181887,22.1656226 13.3071858,23 12.0013036,23 C10.6954213,23 9.58441841,22.1656226 9.17232779,21.0009007 L4.00130356,21 C3.25626032,21 2.77285894,20.214507 3.10858217,19.549391 L4.77908134,16.2398916 L4.77908134,11.2222222 C4.77908134,8.2956642 6.51976244,5.77566404 9.02226778,4.6410786 C9.19991684,3.15343657 10.4659104,2 12.0013036,2 Z M12.0013036,6 C9.11714987,6 6.77908134,8.33806853 6.77908134,11.2222222 L6.77908134,16.4779663 C6.77908134,16.6344953 6.74233612,16.7888385 6.67180273,16.9285754 L5.62623275,19 L18.3763744,19 L17.3308044,16.9285754 C17.260271,16.7888385 17.2235258,16.6344953 17.2235258,16.4779663 L17.2235258,11.2222222 C17.2235258,8.33806853 14.8854573,6 12.0013036,6 Z" id="Shape"></path>
                    </g>
                    <rect id="Notification-sign" fill="#FC5A5A" x="15" y="0" width="12" height="12" rx="6"></rect>
                </g>
            </g>
        </g>
    </g>
</svg>