<?xml version="1.0" encoding="UTF-8"?>
<svg width="24px" height="24px" viewBox="0 0 24 24" version="1.1" xmlns="http://www.w3.org/2000/svg" xmlns:xlink="http://www.w3.org/1999/xlink">
    <!-- Generator: Sketch 60.1 (88133) - https://sketch.com -->
    <title>Component/icon/ic_secure Outline</title>
    <desc>Created with Sketch.</desc>
    <g id="Component/icon/ic_secure-Outline" stroke="none" stroke-width="1" fill="none" fill-rule="evenodd">
        <g id="iconspace_Private_25px">
            <polygon id="Path" points="0 0 24 0 24 24 0 24"></polygon>
            <path d="M7.0255962,8.92372643 L7.0255962,7.09416502 C7.0255962,4.28374753 9.28120642,2 12.0704998,2 C14.8597931,2 17.1154034,4.28374753 17.1154034,7.09416502 L17.1154034,8.92372643 L18.5433301,8.92372643 C19.3549636,8.92372643 20,9.58961477 20,10.3957219 L20,20.5280045 C20,21.3341117 19.3549636,22 18.5433301,22 L5.45666991,22 C4.64503638,22 4,21.3341117 4,20.5280045 L4,10.3957219 C4,9.58961477 4.64503638,8.92372643 5.45666991,8.92372643 L7.0255962,8.92372643 Z M5.82278481,10.7419082 L5.82278481,20.1818182 L18.1772152,20.1818182 L18.1772152,10.7419082 L5.82278481,10.7419082 Z M15.2926186,8.89571322 L15.2926186,7.09416502 C15.2926186,5.28187729 13.8469568,3.81818182 12.0704998,3.81818182 C10.2940428,3.81818182 8.84838101,5.28187729 8.84838101,7.09416502 L8.84838101,8.89571322 L15.2926186,8.89571322 Z" id="Shape" fill="#92929D"></path>
        </g>
    </g>
</svg>