<?xml version="1.0" encoding="UTF-8"?>
<svg width="24px" height="24px" viewBox="0 0 24 24" version="1.1" xmlns="http://www.w3.org/2000/svg" xmlns:xlink="http://www.w3.org/1999/xlink">
    <!-- Generator: Sketch 60.1 (88133) - https://sketch.com -->
    <title>Component/icon/ic_Someone’s activity</title>
    <desc>Created with Sketch.</desc>
    <g id="Component/icon/ic_Someone’s-activity" stroke="none" stroke-width="1" fill="none" fill-rule="evenodd">
        <path d="M7.76923077,7.82352941 C7.76923077,5.15956768 9.8872683,3 12.5,3 C15.1127317,3 17.2307692,5.15956768 17.2307692,7.82352941 C17.2307692,9.49624988 16.3956963,10.9701043 15.1274305,11.8353324 C17.9736545,12.9209146 20,15.7191781 20,19 L20,21 L5,21 L5,19 C5,15.7191781 7.02634547,12.9209146 9.87256955,11.8353324 C8.60430374,10.9701043 7.76923077,9.49624988 7.76923077,7.82352941 Z M12.5,10.5294118 C13.9656788,10.5294118 15.1538462,9.31794697 15.1538462,7.82352941 C15.1538462,6.32911185 13.9656788,5.11764706 12.5,5.11764706 C11.0343212,5.11764706 9.84615385,6.32911185 9.84615385,7.82352941 C9.84615385,9.31794697 11.0343212,10.5294118 12.5,10.5294118 Z M12.5,13.4705882 C9.54347416,13.4705882 7.13953005,15.8828617 7.07812624,18.8823529 L17.9218738,18.8823529 C17.86047,15.8828617 15.4565258,13.4705882 12.5,13.4705882 Z" id="Shape" fill="#92929D"></path>
    </g>
</svg>